<?xml version="1.0" encoding="utf-8"?>
<!-- Generator: Adobe Illustrator 22.1.0, SVG Export Plug-In . SVG Version: 6.00 Build 0)  -->
<svg version="1.1" id="Layer_1" xmlns="http://www.w3.org/2000/svg" xmlns:xlink="http://www.w3.org/1999/xlink" x="0px" y="0px"
	 viewBox="0 0 157 197.1" style="enable-background:new 0 0 157 197.1;" xml:space="preserve">
<style type="text/css">
	.st0{fill:#87C540;}
	.st1{fill:#333333;}
</style>
<g>
	<path class="st0" d="M77.2,97.8C75.3,96.7,65.4,86.9,61.1,82C54.5,74.4,48,63.4,45.3,55.1c-2.1-6.2-2.6-16.4-1.3-22.2
		c2.5-10.7,8.7-18.6,18.6-23.9C67.7,6.2,72.6,5,78.8,5c8.2,0,15.1,2.4,21.3,7.2c7.7,6.1,12,13.2,13.5,22.2
		c1.6,9.3,0.2,18.2-4.2,27.4c-4.3,8.9-6.6,12.4-13.4,20.2c-6.4,7.5-15.9,16.6-17.2,16.6C78.7,98.7,78,98.2,77.2,97.8z M81.9,46.5
		c2-0.9,3.4-3.3,3.4-5.7c0-2.3-1.5-4.7-3.4-5.7c-2.2-1.1-4-1.1-6.2,0c-4.4,2.1-4.5,9.1,0,11.3C77.9,47.5,79.7,47.6,81.9,46.5z"/>
	<path class="st1" d="M5.1,144.6c-1.7-0.5-2.7-1.4-3.5-3c-0.9-1.7-0.5-10.6,0.7-14.9c1.1-4.1,2.3-8.3,3.1-10.9
		c0.4-1.2,0.9-3,1.2-4.1c2.2-7.5,2.6-8.8,2.9-9.1c0.4-0.3,7.5,0.1,13,0.8c1.6,0.2,3.9,0.8,5.3,1.3l2.4,1l0.1,3.5
		c0.2,5.2-0.7,34.8-1.1,35.2C28.6,144.9,6.8,145.1,5.1,144.6z"/>
	<path class="st1" d="M35.5,144.7c-1.8-0.2-2.1-0.4-2.4-1.5c-0.5-1.6-0.5-33.8,0-35.4c0.7-2.1,0.7-2.1,33.3,3.7
		c1.8,0.3,4.7,0.9,6.5,1.2c29.4,5.5,35.5,6.9,37.3,8.3c0.9,0.7,0.9,0.9,0.4,1.9c-0.8,1.5-7.7,7.9-17.1,15.8l-7.5,6.4L61.8,145
		C48.4,145,36.6,144.8,35.5,144.7z"/>
	<path class="st1" d="M98.3,144.7c-3.7-0.3-4.4-0.7-3.3-2.1c1.1-1.3,12-11.5,15.4-14.4c1.6-1.3,4.2-3.6,5.9-5
		c1.7-1.5,5.6-4.8,8.7-7.3c3.1-2.6,8.6-7.2,12.1-10.3c4.2-3.6,6.9-5.6,7.5-5.6c2.2,0,3.6,3.2,7.5,16.3c4.6,15.7,5.9,23.5,4.1,25.8
		c-1.3,1.7-2.8,2.2-6.8,2.7C145.5,145.1,103.5,145.1,98.3,144.7z"/>
	<g>
		<path class="st1" d="M145.6,197.1c-1.3-0.1-2.2-0.4-3.4-1.2c-0.9-0.6-2.3-2.1-2.9-3.1c-2-3.5-3-10.1-3-19.6c0-9.4,1-15.9,2.9-19.4
			c0.4-0.6,1-1.4,1.7-2.2c1.9-1.9,3.3-2.4,6.4-2.4c3,0,4.5,0.6,6.7,2.7c1.9,1.8,2.8,3.9,3,6.9c0.1,1.2,0.1,1.2-0.2,1.5
			c-0.3,0.3-0.4,0.3-3.4,0.3l-3.1,0l-0.1-1.1c-0.1-1.1-0.4-2.2-0.9-2.7c-0.6-0.7-2.3-1-3.2-0.5c-0.5,0.2-0.9,0.8-1.3,1.5
			c-0.6,1.3-1.1,5.2-1.4,12.2c-0.2,3.4-0.1,7.1,0.4,11.5c0.4,3.9,0.7,5.6,1.4,6.6c0.6,0.9,1.3,1.3,2.3,1.3c1.5,0,2.3-0.8,2.7-2.7
			c0.1-0.5,0.2-1,0.3-1.2l0.1-0.3l3,0c3,0,3,0,3.4,0.3c0.4,0.4,0.4,1,0.1,3c-0.2,1.6-0.8,3.3-1.6,4.4c-1.2,1.8-3.6,3.6-5.3,4.1
			C149.1,197.1,147,197.2,145.6,197.1z"/>
		<path class="st1" d="M7.1,196.2l-0.3-0.3v-19.4v-19.4H4.2c-3.4,0-3.1,0.3-3.1-3.7c0-3,0-3.1,0.3-3.3l0.3-0.3h8.7h8.7l0.3,0.3
			c0.3,0.3,0.3,0.4,0.3,3.4c0,4,0.3,3.6-3.3,3.6h-2.7v19.4v19.4l-0.3,0.3c-0.3,0.3-0.4,0.3-3.2,0.3C7.4,196.5,7.4,196.5,7.1,196.2z"
			/>
		<path class="st1" d="M26.6,196.2l-0.3-0.3v-22.7v-22.7l0.3-0.3l0.3-0.3l5.3,0.1c4.9,0.1,5.3,0.1,6.3,0.4c4.1,1.1,7.1,4.2,8.1,8.5
			c0.7,3.1,0.5,7.9-0.5,10.6c-0.6,1.6-1.2,2.5-2.4,3.7c-0.6,0.6-1.3,1.3-1.5,1.4l-0.4,0.3l2.5,10.4c1.4,5.7,2.5,10.5,2.5,10.6
			s-0.1,0.4-0.2,0.6l-0.2,0.3h-3.2c-1.9,0-3.2-0.1-3.2-0.1c0-0.1-1.1-4.8-2.4-10.6l-2.3-10.4l-1,0l-1,0v10.3v10.3l-0.3,0.3
			c-0.3,0.3-0.4,0.3-3.2,0.3C26.9,196.5,26.9,196.5,26.6,196.2z M37.6,167.7c1.3-0.7,2.1-2.2,2.3-4.1c0.1-2.2-0.4-4.2-1.4-5.3
			c-0.9-0.9-1.7-1.2-3.7-1.2h-1.6v5.6v5.6l1.9-0.1C36.8,168.2,36.9,168.2,37.6,167.7z"/>
		<path class="st1" d="M56.3,196.2l-0.3-0.3v-22.7v-22.7l0.3-0.3c0.3-0.3,0.4-0.3,3.2-0.3c2.8,0,2.9,0,3.1,0.3l0.3,0.3v22.7v22.7
			l-0.3,0.3c-0.3,0.3-0.4,0.3-3.2,0.3C56.7,196.5,56.6,196.5,56.3,196.2z"/>
		<path class="st1" d="M71,196.2l-0.3-0.3v-22.7v-22.7l0.3-0.3l0.3-0.3h8.7h8.7l0.3,0.3c0.3,0.3,0.3,0.4,0.3,3.4c0,3,0,3.1-0.3,3.3
			c-0.3,0.3-0.4,0.3-5.8,0.3h-5.5v5.1v5.1h3.1c4.1,0,3.7-0.4,3.7,3.7c0,4.1,0.4,3.7-3.7,3.7h-3.1v10.6v10.6l-0.3,0.3
			c-0.3,0.3-0.4,0.3-3.2,0.3C71.3,196.5,71.2,196.5,71,196.2z"/>
		<path class="st1" d="M94.8,196.2l-0.3-0.3v-22.7v-22.7l0.3-0.3l0.3-0.3h8.7h8.7l0.3,0.3c0.3,0.3,0.3,0.4,0.3,3.4
			c0,3,0,3.1-0.3,3.3c-0.3,0.3-0.4,0.3-5.8,0.3h-5.5v5.1v5.1h3.1c4.1,0,3.7-0.4,3.7,3.7c0,4.1,0.4,3.7-3.7,3.7h-3.1v10.6v10.6
			l-0.3,0.3c-0.3,0.3-0.4,0.3-3.2,0.3C95.1,196.5,95.1,196.5,94.8,196.2z"/>
		<path class="st1" d="M121,196.2l-0.3-0.3v-22.7v-22.7l0.3-0.3c0.3-0.3,0.4-0.3,3.2-0.3c2.8,0,2.9,0,3.1,0.3l0.3,0.3v22.7v22.7
			l-0.3,0.3c-0.3,0.3-0.4,0.3-3.2,0.3C121.4,196.5,121.3,196.5,121,196.2z"/>
	</g>
	<path class="st1" d="M112.2,117.3c-2.3-0.4-7.9-1.3-13.2-2.2c-2.2-0.3-4.8-0.8-5.7-1c-0.9-0.2-3.4-0.7-5.5-1
		c-2.1-0.4-5.3-0.9-7.1-1.3c-4.8-0.9-23.1-4.2-26.9-4.9c-1.8-0.3-5.2-0.9-7.5-1.4c-11.6-2.1-32.4-6.4-33.5-7c-1.4-0.7-1.6-1.8-1-4.9
		c1.2-6.2,4.3-14.1,6.5-16.5c2.2-2.4,5.2-2.9,20.4-2.9l12.3,0l4.4,5.4c12.3,15,16,18.6,21.1,20c2.2,0.7,2.5,0.7,4.6,0
		c2.2-0.7,4.9-2.4,7.6-5c2.7-2.5,12.6-14.1,16.2-19l1.1-1.6l13.1,0.2c8.5,0.1,13.8,0.4,15.3,0.7c2.7,0.6,5.2,2.2,6.2,4
		c1.5,2.5,4.4,12,4.4,14.3c0,0.9-0.9,2-4.8,5.6c-5.4,5-14.3,12.6-19,16.3c-3,2.4-3.3,2.5-5.3,2.5C115,117.7,113.2,117.5,112.2,117.3
		z"/>
</g>
</svg>
