<?xml version="1.0" encoding="utf-8"?>
<!-- Generator: Adobe Illustrator 22.0.1, SVG Export Plug-In . SVG Version: 6.00 Build 0)  -->
<svg version="1.1" id="Layer_1" xmlns="http://www.w3.org/2000/svg" xmlns:xlink="http://www.w3.org/1999/xlink" x="0px" y="0px"
	 viewBox="0 0 1559 355" style="enable-background:new 0 0 1559 355;" xml:space="preserve">
<style type="text/css">
	.st0{fill:#87C540;}
	.st1{fill:#FFFFFF;}
</style>
<g id="layer101">
	<path class="st0" d="M172.1,209.3c-23.7-23.8-34.2-37.3-45.1-57.5c-11.7-22.1-16.2-38.1-16.2-57.8c0-18.6,4.5-33.6,13.9-46.8
		c9-12.6,16.6-19.4,30.3-27c14.5-8,32.7-10.9,50-8.1c21.5,3.4,42,17.3,55.5,37.6C267.4,60,273,80.2,273,94.8
		c0,7.3-2.4,21.7-5.1,30.7c-3.7,12.1-15.6,35-24.4,47c-11.7,15.8-44.5,51.3-50.6,54.5C191.1,228,189.1,226.4,172.1,209.3z
		 M203.1,112.2c4.3-2.2,5.9-3.8,8.1-8.1c6-11.4,2.4-24.9-8.1-30.3c-7.4-3.9-14.8-3.9-22.2,0c-14.7,7.7-14.7,30.7,0,38.4
		C188.3,116.1,195.7,116.1,203.1,112.2z"/>
</g>
<g id="layer102">
	<path class="st1" d="M1465.5,353c-9.7-0.7-16.2-3-25-8.5c-6.4-4.1-17.3-15.6-21.3-22.6c-14.8-25.9-22.3-74.7-22.4-144.9
		c0-69.5,7.2-117.6,21.5-143c2.7-4.8,7.2-10.6,12.7-16c14-14.1,24.3-18,47-18c21.9,0.1,33,4.6,49.2,19.8
		c13.8,13,20.9,29.1,22.4,50.7c0.6,8.7,0.5,9.1-1.8,11.3c-2.4,2.2-2.8,2.2-25.4,2l-22.9-0.3l-0.7-8.2c-0.7-8.2-3.2-15.9-6.6-19.7
		c-4.6-5.1-16.9-7.2-23.7-4c-3.5,1.6-7,5.6-9.9,11.1c-4.8,9.5-8.3,38.4-10.6,90.5c-1.2,25.3-0.4,52.3,2.6,85.3
		c2.6,28.9,5.3,41.2,10.7,49.1c4.5,6.6,9.6,9.4,17.1,9.4c11,0,17.1-6.2,19.6-20c0.6-3.6,1.5-7.6,1.9-9l0.6-2.5l22.4-0.3
		c21.9-0.2,22.5-0.2,24.8,2c2.8,2.6,3,7.6,0.8,21.9c-1.7,11.8-6.2,24.2-11.6,32.6c-8.5,13-26.7,26.9-39.4,30.1
		C1491.7,353.3,1475.9,353.9,1465.5,353z"/>
	<path class="st1" d="M11,347.9c-4.2-1.3-6.7-3.4-8.7-7.4c-2.2-4.1-1.2-26.1,1.6-36.5c2.7-10,5.6-20.4,7.5-26.7
		c0.9-2.9,2.2-7.4,3-10c5.4-18.3,6.4-21.5,7.2-22.3c0.9-0.8,18.5,0.3,31.9,1.9c3.9,0.5,9.7,1.9,13,3.2l6,2.4l0.3,8.5
		c0.5,12.8-1.8,85.4-2.8,86.4C68.7,348.7,15.2,349.2,11,347.9z"/>
	<path class="st1" d="M85.6,348.1c-4.4-0.5-5.1-0.9-6-3.6c-1.3-4-1.3-82.9,0.1-87c1.7-5.2,1.8-5.2,81.8,9c4.4,0.7,11.6,2.1,16,2.9
		c72.3,13.6,87.2,16.9,91.6,20.5c2.2,1.8,2.3,2.1,0.9,4.6c-1.9,3.6-19,19.4-41.9,38.9L209.6,349l-59.5-0.2
		C117.3,348.8,88.3,348.4,85.6,348.1z"/>
	<path class="st1" d="M239.8,348c-9.2-0.7-10.9-1.8-8.2-5.2c2.6-3.3,29.4-28.3,37.9-35.4c3.9-3.2,10.4-8.8,14.6-12.4
		s13.8-11.7,21.4-18c7.6-6.3,21-17.7,29.8-25.2c10.2-8.8,16.9-13.8,18.3-13.8c5.3,0,8.9,7.8,18.4,40c11.4,38.5,14.5,57.7,10,63.3
		c-3.3,4.1-6.9,5.5-16.7,6.7C355.8,349.1,252.7,349.1,239.8,348z"/>
	<path class="st1" d="M442.2,346.7l-2.2-2.3V201.2V58h-18.8C396,58,398,60.4,398,30.9c0-22.3,0-22.6,2.3-24.7l2.3-2.2h64.5h64.6
		l2.1,2.3c2.1,2.2,2.2,3.1,2.2,24.8c0,29.4,2.2,26.9-24.3,26.9H492v143.3v143.4l-2.3,2.1c-2.2,2.1-3.1,2.2-23.8,2.2
		C444.7,349,444.3,349,442.2,346.7z"/>
	<path class="st1" d="M586.2,346.7l-2.2-2.3v-168V8.3l2.4-2.2l2.4-2.3l38.9,0.4c35.9,0.5,39.4,0.6,46.8,2.7
		c30.3,8.2,52.1,31.1,59.6,62.7c5.4,22.9,3.8,58.5-3.7,78.2c-4.5,11.9-8.6,18.4-17.4,27.2c-4.7,4.7-9.7,9.5-11.1,10.5l-2.7,2
		l18.4,76.5c10.1,42.1,18.4,77.3,18.4,78.3s-0.7,2.9-1.6,4.2l-1.6,2.5h-23.4c-14.4,0-23.5-0.4-23.9-1c-0.3-0.6-8.4-35.8-17.9-78.3
		l-17.3-77.2l-7.6-0.3l-7.7-0.3v76.4v76.4l-2.3,2.1c-2.2,2.1-3.1,2.2-23.3,2.2C588.7,349,588.3,349,586.2,346.7z M668,136.4
		c9.8-5.5,15.6-16,16.7-30.3c1.1-15.9-2.9-31.2-10.5-39.3c-6.5-7-12.2-8.8-27.2-8.8h-12v41.1v41.1l13.8-0.4
		C662,139.5,662.7,139.4,668,136.4z"/>
	<path class="st1" d="M806.2,346.7l-2.2-2.3v-168V8.3l2.3-2.1c2.2-2.1,3.1-2.2,23.3-2.2c20.7,0,21.1,0,23.2,2.3l2.2,2.3v168v168.1
		l-2.3,2.1c-2.2,2.1-3.1,2.2-23.3,2.2C808.7,349,808.3,349,806.2,346.7z"/>
	<path class="st1" d="M914.2,346.7l-2.2-2.3v-168V8.3l2.3-2.1l2.3-2.2h64h64.1l2.1,2.3c2.1,2.2,2.2,3.1,2.2,24.8
		c0,22.3,0,22.6-2.3,24.7c-2.3,2.2-2.6,2.2-43,2.2H963v37.5V133h22.8c30,0,27.2-2.8,27.2,27.6c0,30.2,2.8,27.4-27.3,27.4H963v78.3
		v78.4l-2.3,2.1c-2.2,2.1-3.1,2.2-23.3,2.2C916.7,349,916.3,349,914.2,346.7z"/>
	<path class="st1" d="M1090.2,346.7l-2.2-2.3v-168V8.3l2.3-2.1l2.3-2.2h64h64.1l2.1,2.3c2.1,2.2,2.2,3.1,2.2,24.8
		c0,22.3,0,22.6-2.3,24.7c-2.3,2.2-2.6,2.2-43,2.2H1139v37.5V133h22.8c30,0,27.2-2.8,27.2,27.6c0,30.2,2.8,27.4-27.3,27.4H1139v78.3
		v78.4l-2.3,2.1c-2.2,2.1-3.1,2.2-23.3,2.2C1092.7,349,1092.3,349,1090.2,346.7z"/>
	<path class="st1" d="M1284.2,346.7l-2.2-2.3v-168V8.3l2.3-2.1c2.2-2.1,3.1-2.2,23.3-2.2c20.7,0,21.1,0,23.2,2.3l2.2,2.3v168v168.1
		l-2.3,2.1c-2.2,2.1-3.1,2.2-23.3,2.2C1286.7,349,1286.3,349,1284.2,346.7z"/>
	<path class="st1" d="M274,280.9c-5.6-1-19.4-3.3-32.4-5.4c-5.4-0.8-11.7-2-14-2.5s-8.4-1.6-13.6-2.5s-13.1-2.3-17.5-3.1
		c-11.9-2.1-56.8-10.3-66-12c-4.4-0.8-12.7-2.3-18.5-3.4c-28.6-5.1-79.6-15.7-82.2-17.1c-3.4-1.8-3.9-4.3-2.4-12.1
		c3-15.3,10.6-34.7,16-40.6c5.4-6,12.8-7.1,50.2-7.1l30.2-0.1l10.8,13.3c30.2,36.9,39.4,45.6,51.9,49.2c5.5,1.7,6.2,1.7,11.4,0
		c5.3-1.6,12-6,18.6-12.2c6.6-6.2,31-34.7,39.9-46.6l2.8-3.9l32.2,0.4c20.8,0.3,34,0.9,37.6,1.7c6.6,1.5,12.7,5.5,15.3,9.9
		c3.6,6.2,10.7,29.5,10.7,35.2c0,2.2-2.3,4.9-11.7,13.7c-13.3,12.3-35,31-46.6,40.1c-7.4,5.9-8.1,6.2-13,6.1
		C280.8,281.8,276.5,281.4,274,280.9z"/>
	<path class="st1" d="M188,232.9c-4.6-2.8-28.9-26.8-39.5-38.9c-16.2-18.6-32.1-45.5-38.9-66c-5.1-15.2-6.5-40.3-3.2-54.5
		c6.2-26.2,21.3-45.7,45.7-58.8C164.6,7.9,176.6,5,192,5c20.2,0,37,5.8,52.2,17.8c18.9,15.1,29.4,32.3,33.1,54.5
		c3.9,22.8,0.5,44.6-10.4,67.2c-10.5,21.8-16.2,30.4-32.8,49.7c-15.8,18.5-39,40.8-42.3,40.8C191.6,235,189.9,234,188,232.9z
		 M206.5,212.4c12.7-12.7,26.9-28.9,35-39.9c8.8-12,20.7-34.9,24.4-47c2.7-9,5.1-23.4,5.1-30.7c0-12.8-4.8-32.4-10.3-41.8
		C249,33,227.1,17.6,205,14.1c-22.1-3.6-41.7,1.3-61.5,15.5c-7.3,5.2-9.8,7.7-16.8,17.6c-9.4,13.2-13.9,28.2-13.9,46.8
		c0,19.7,4.5,35.7,16.2,57.8c10.7,20,21.4,33.7,44.1,56.5c15.9,16,18,17.7,19.8,16.8C194,224.5,200.1,218.7,206.5,212.4z"/>
	<path class="st1" d="M181.2,114.4c-9.1-4.5-13.8-13-13-23.4c0.6-7.7,4.6-14.4,11.2-18.5c4.4-2.7,5.8-3,12.6-3s8.2,0.3,12.6,3
		c3,1.9,6,4.9,7.9,7.9c2.7,4.4,3,5.8,3,12.6c0,6.8-0.3,8.2-3,12.6C205.9,116.2,192.3,120.1,181.2,114.4z M199.6,106.9
		c4.8-2.3,8.4-8.2,8.4-13.9c0-5.7-3.6-11.6-8.4-13.9c-5.4-2.6-9.8-2.6-15.2,0c-10.9,5.2-11,22.4-0.1,27.8
		C189.6,109.5,194.2,109.6,199.6,106.9z"/>
</g>
</svg>
